<?xml version="1.0" encoding="UTF-8"?>
<svg version="1.1" xmlns="http://www.w3.org/2000/svg" width="496" height="496">
<path d="M0 0 C35.97 0 71.94 0 109 0 C109.33 82.5 109.66 165 110 250 C155.21 249.67 200.42 249.34 247 249 C247 166.83 247 84.66 247 0 C280.66 0 314.32 0 349 0 C349.08060607 55.19724442 349.08060607 55.19724442 349.09765625 78.390625 C349.10158295 83.68945325 349.10561207 88.98828138 349.10986328 94.28710938 C349.11039078 94.9511244 349.11091828 95.61513942 349.11146176 96.29927611 C349.11959508 106.32159874 349.13366498 116.34389975 349.15087891 126.36621094 C349.17087649 138.01482683 349.1837315 149.66342551 349.18817699 161.31205809 C349.19077361 167.47411647 349.19683319 173.63612565 349.21146011 179.79816818 C349.22514485 185.61097686 349.22920085 191.42371658 349.22621536 197.23653984 C349.22676069 199.35755858 349.23067269 201.47857989 349.23841095 203.59958458 C349.38823085 246.82413257 336.92828377 286.72125409 306 318 C305.07829709 318.98992861 304.15905747 319.98215596 303.2421875 320.9765625 C282.84742638 342.7276947 252.72185843 357.80713087 222.6974802 359.09907722 C220.28172028 359.14246385 217.8675626 359.15790605 215.45141602 359.16113281 C214.0883004 359.16858017 214.0883004 359.16858017 212.69764709 359.17617798 C209.71639217 359.1906791 206.73519053 359.19758311 203.75390625 359.203125 C202.21129781 359.20736607 202.21129781 359.20736607 200.63752556 359.21169281 C195.18974429 359.22664025 189.74198918 359.23589646 184.29418945 359.24023438 C178.71688255 359.24569726 173.13982245 359.26969202 167.56259251 359.29820633 C163.23066043 359.31699812 158.89878569 359.32204713 154.56681633 359.32357025 C152.51348466 359.32656263 150.46015315 359.33447272 148.40686226 359.34775543 C106.23655456 359.60097917 72.85071185 344.54852511 42.875 315.25 C17.04331209 289.32590374 -0.03651183 250.64221844 -0.12908131 213.92492855 C-0.12616847 213.09415739 -0.12325563 212.26338623 -0.12025452 211.40744019 C-0.12110894 210.49643087 -0.12196337 209.58542155 -0.12284368 208.64680588 C-0.12447808 205.62372886 -0.11901083 202.60070854 -0.11352539 199.57763672 C-0.11324305 197.3988495 -0.11340217 195.22006219 -0.1139679 193.04127502 C-0.11425405 187.14741868 -0.10838676 181.2535828 -0.10139394 175.3597312 C-0.09513007 169.19246875 -0.0945542 163.02520581 -0.09336853 156.85794067 C-0.09026415 145.18870797 -0.08206281 133.51948466 -0.07201904 121.85025609 C-0.05873678 106.07500547 -0.05335078 90.29975283 -0.04751682 74.52449799 C-0.03812232 49.68299162 -0.01819742 24.84150509 0 0 Z " fill="#DE0305" transform="translate(71,127)"/>
<path d="M0 0 C44.44351608 -0.02202539 88.88702703 -0.04049724 133.330547 -0.05106533 C138.57168304 -0.05231611 143.81281906 -0.05361042 149.05395508 -0.05493164 C150.61914845 -0.05532511 150.61914845 -0.05532511 152.21596188 -0.05572652 C169.13495458 -0.06008364 186.0539439 -0.06797141 202.9729346 -0.0771528 C220.31975957 -0.08648819 237.66658277 -0.09205537 255.01341015 -0.09408849 C265.7264084 -0.09546396 276.43939709 -0.09981583 287.15239239 -0.10791647 C294.48818126 -0.11318251 301.82396514 -0.11480462 309.15975576 -0.11350138 C313.39876898 -0.11285777 317.63776546 -0.113878 321.87677574 -0.11920547 C325.75100576 -0.12403924 329.62520762 -0.1243388 333.49943889 -0.12089889 C334.90725413 -0.12047318 336.31507106 -0.12176911 337.72288292 -0.12488318 C339.62408119 -0.12884693 341.52528997 -0.12615647 343.42648983 -0.12304783 C344.48628927 -0.12342755 345.54608871 -0.12380727 346.63800329 -0.1241985 C349 0 349 0 350 1 C350.0953919 2.37876025 350.12188622 3.76236916 350.12025452 5.14442444 C350.12231651 6.48433693 350.12231651 6.48433693 350.12442017 7.85131836 C350.12082489 8.83890137 350.11722961 9.82648437 350.11352539 10.84399414 C350.11367142 11.87801865 350.11381744 12.91204315 350.1139679 13.97740173 C350.11326827 17.41334086 350.10547358 20.84922653 350.09765625 24.28515625 C350.09579225 26.66027293 350.09436826 29.03539 350.09336853 31.4105072 C350.08954197 37.67576144 350.0797105 43.94099267 350.06866455 50.20623779 C350.0584534 56.5938689 350.05387155 62.98150371 350.04882812 69.36914062 C350.03808836 81.91277026 350.02120127 94.45638391 350 107 C337.89766785 107.13191131 325.79532115 107.26239319 313.69295502 107.39115143 C308.07068642 107.45101004 302.44842354 107.51132377 296.82617188 107.57275391 C291.37963517 107.63224612 285.9330859 107.69044329 280.48652649 107.74781799 C278.42978948 107.76969701 276.37305701 107.79200857 274.31632996 107.81480408 C259.54372337 107.97812438 244.77348697 108.02798323 230 108 C230.01127898 108.56889072 230.02255796 109.13778145 230.03417873 109.72391129 C230.75848553 146.44419591 231.24890476 183.16067981 231.53242874 219.88707352 C231.56301813 223.81655827 231.59471359 227.7460328 231.62667847 231.67550659 C231.83255136 257.10238949 232.0286283 282.52924489 232.0625 307.95703125 C232.06353729 308.73509314 232.06457458 309.51315502 232.06564331 310.31479454 C232.08117361 324.54328859 232.03363711 338.77150349 232 353 C197.68 353 163.36 353 128 353 C128 272.15 128 191.3 128 108 C86.09 108 44.18 108 1 108 C0.67 72.36 0.34 36.72 0 0 Z " fill="#DD0305" transform="translate(70,0)"/>
</svg>
